<?xml version="1.0" encoding="utf-8"?>
<!DOCTYPE svg PUBLIC "-//W3C//DTD SVG 20010904//EN" "http://www.w3.org/TR/2001/REC-SVG-20010904/DTD/svg10.dtd">
<svg height="200.000000pt" preserveAspectRatio="xMidYMid meet" version="1.0" viewBox="0 0 183.000000 200.000000" width="183.000000pt" xmlns="http://www.w3.org/2000/svg">
<metadata>
Created by potrace 1.16, written by Peter Selinger 2001-2019
</metadata>
<g fill="#2563EB" stroke="none" transform="translate(0.000000,200.000000) scale(0.100000,-0.100000)">
<path d="M615 1781 c-154 -44 -292 -156 -359 -293 -39 -78 -65 -193 -66 -289 l0 -56 98 -6 c171 -12 314 -8 372 9 100 30 176 94 218 184 24 50 27 73 35 247 5 105 7 199 4 207 -9 23 -219 21 -302 -3z m225 -194 c0 -164 -15 -213 -83 -282 -75 -74 -114 -85 -309 -85 l-158 0 0 49 c0 59 28 154 63 213 53 91 191 193 295 217 20 5 72 9 115 10 l77 1 0 -123z"/>
<path d="M1100 1779 c-14 -5 -36 -20 -48 -32 -48 -44 -52 -65 -52 -244 0 -195 8 -221 83 -290 55 -50 112 -69 241 -79 l94 -7 78 -63 c43 -35 84 -64 91 -64 27 0 64 25 69 47 4 13 4 92 2 176 -4 132 -9 161 -31 221 -51 137 -145 239 -277 303 -61 30 -88 37 -150 40 -41 2 -86 -2 -100 -8z m191 -98 c111 -43 211 -150 259 -277 17 -47 20 -75 18 -165 l-3 -109 -55 44 -55 44 -115 4 c-132 5 -179 22 -227 85 -28 36 -28 39 -31 193 l-3 157 27 22 c35 27 115 28 185 2z"/>
<path d="M280 1053 c-24 -9 -61 -45 -77 -76 -20 -40 -3 -279 28 -369 58 -172 197 -302 375 -349 135 -35 221 -14 265 65 21 37 23 53 23 191 0 180 -12 229 -81 305 -75 83 -174 120 -325 120 l-57 0 -11 40 c-16 60 -82 94 -140 73z m385 -227 c49 -21 101 -69 126 -118 16 -32 19 -59 19 -183 0 -142 -1 -147 -25 -170 -29 -30 -73 -32 -158 -10 -79 21 -131 49 -190 103 -87 81 -144 192 -162 315 l-7 47 45 0 c31 0 52 6 68 20 22 19 35 20 134 17 74 -3 123 -9 150 -21z"/>
<path d="M1350 931 c-134 -6 -148 -8 -191 -33 -65 -38 -134 -119 -158 -184 -19 -49 -21 -77 -21 -259 l0 -205 83 0 83 0 80 -59 c116 -86 118 -86 124 26 l5 92 60 39 c163 106 241 254 252 480 l6 112 -89 -2 c-49 -1 -154 -4 -234 -7z m230 -129 c0 -57 -23 -150 -52 -212 -30 -62 -131 -160 -203 -196 -60 -30 -60 -31 -63 -78 l-3 -47 -48 36 c-39 28 -58 35 -95 35 l-46 0 0 163 c0 183 9 216 73 277 62 59 101 69 280 69 l157 1 0 -48z"/>
</g>
</svg>